<?xml version="1.0" encoding="utf-8"?>
<!-- Generator: Adobe Illustrator 16.0.0, SVG Export Plug-In . SVG Version: 6.00 Build 0)  -->
<!DOCTYPE svg PUBLIC "-//W3C//DTD SVG 1.1//EN" "http://www.w3.org/Graphics/SVG/1.1/DTD/svg11.dtd">
<svg version="1.1" id="Capa_1" xmlns="http://www.w3.org/2000/svg" xmlns:xlink="http://www.w3.org/1999/xlink" x="0px" y="0px"
	 width="126.245px" height="123.382px" viewBox="0 0 126.245 123.382" enable-background="new 0 0 126.245 123.382"
	 xml:space="preserve">
<g>
	<path fill="#8F4701" d="M39.332,54.733c-4.78-14.68-4.103-20.212,2.033-16.599c2.146-14.152,4.705-18.256,7.641-12.346
		L75.467,6.291c2.371-1.506,4.329-1.92,5.872-1.205c4.63-10.765-5.985-4.441-31.844,18.972c0.903-19.01-2.447-15.283-10.088,11.179
		c-6.663-11.368-7.641-5.12-2.898,18.707C37.375,53.793,38.316,54.057,39.332,54.733L39.332,54.733z"/>
	<path fill="#432101" d="M41.365,38.135c-6.136-3.613-6.812,1.919-2.033,16.599c0.527,0.34,1.054,0.753,1.619,1.28
		c7.34,0.302,9.109-5.985,5.307-18.896c11.067-1.92,15.019-4.366,11.819-7.34c15.847-2.521,22.17-5.571,18.971-9.222
		c17.202,1.957,21.644-0.301,13.4-6.775c8.167-4.104,7.903-6.361-0.792-6.813c-3.048,0.791-6.736,1.919-10.99,3.351
		c1.166-2.07,2.033-3.802,2.673-5.232c-1.543-0.715-3.501-0.301-5.872,1.205L49.005,25.789
		C46.069,19.879,43.51,23.982,41.365,38.135L41.365,38.135z"/>
	<path fill="#C06D45" d="M39.332,54.733c-1.016-0.677-1.957-0.94-2.823-0.79c-1.016,0.188-1.844,0.94-2.56,2.259
		c0.564,0.113,1.167,0.301,1.731,0.527c3.425,1.317,6.812,4.291,10.2,8.883C57.211,62.713,61.05,55.11,57.4,42.801
		c15.997-4.666,21.869-7.829,17.579-9.521c6.36-0.678,10.501-1.657,12.383-2.937c2.521,3.274,4.178,6.587,4.969,9.861
		c2.822,6.061,6.775,12.309,11.932,18.67c6.022,14.529,2.221,25.521-11.405,33.011c-7.565,5.082-16.524,6.361-26.95,3.84
		l-5.044,8.167l-3.915-1.882l-1.995-0.979c0.415,0.564,0.903,1.055,1.393,1.544c0.263,0.263,0.564,0.563,0.903,0.827
		c1.317,1.092,2.823,1.92,4.441,2.485c0.264,0.112,0.565,0.187,0.866,0.263c0.565,0.15,1.129,0.264,1.732,0.339l0.64-1.693
		l1.205-3.125l0.902-2.371c18.105,4.367,31.543,0.715,40.35-10.916c8.395-13.286,8.395-24.504,0-33.575
		c-5.08-5.307-8.656-10.651-10.65-15.996c-0.641-3.952-2.184-7.867-4.593-11.819c-3.351-0.979-7.303-2.561-11.856-4.706
		c7.829,3.954,2.032,6.776-17.39,8.433c10.126,0.188,5.873,2.897-12.685,8.13c5.495,12.008,3.915,19.572-4.781,22.697
		c-1.618-2.447-3.125-4.29-4.479-5.533C40.386,55.486,39.859,55.073,39.332,54.733L39.332,54.733z"/>
	<path fill="#210D01" d="M77.048,20.557c3.199,3.65-3.124,6.7-18.971,9.222c3.2,2.974-0.752,5.42-11.819,7.34
		c3.802,12.91,2.033,19.197-5.307,18.896c1.355,1.243,2.861,3.086,4.479,5.533c8.695-3.125,10.275-10.689,4.781-22.697
		c18.557-5.232,22.811-7.942,12.685-8.13c19.422-1.656,25.219-4.479,17.39-8.433c4.554,2.146,8.506,3.728,11.856,4.706
		c7.188,2.107,11.442,1.505,12.798-1.844c1.467-4.442-2.07-7.942-10.689-10.54c-0.189-0.075-0.34-0.113-0.527-0.15
		c11.066-8.695,9.711-11.218-4.066-7.491c8.695,0.452,8.959,2.71,0.792,6.813C98.691,20.256,94.25,22.514,77.048,20.557
		L77.048,20.557z"/>
	<path fill="#E58F70" d="M74.979,33.279c4.29,1.692-1.582,4.855-17.579,9.521c3.65,12.31-0.188,19.912-11.519,22.812
		c-3.388-4.592-6.775-7.565-10.2-8.883c-1.92,4.779-1.958,9.861-0.038,15.319c4.065,4.931,7.452,6.474,10.163,4.667
		c2.672,6.135,7.453,12.609,14.341,19.497l-3.2,5.796l3.915,1.883l5.044-8.167c10.426,2.521,19.385,1.242,26.95-3.84
		c13.626-7.49,17.428-18.481,11.405-33.011c-5.156-6.361-9.109-12.609-11.932-18.67c-0.791-3.274-2.447-6.587-4.969-9.861
		C85.479,31.622,81.339,32.602,74.979,33.279L74.979,33.279z"/>
	<path fill="#FFD38E" d="M33.95,56.202c-0.564,0.94-1.017,2.22-1.431,3.839c-0.941,4.179-0.15,8.695,2.372,13.551
		c2.446,4.403,5.533,5.759,9.334,4.027c0.527-0.226,1.054-0.527,1.582-0.903c-2.711,1.807-6.098,0.264-10.163-4.667
		c-1.92-5.458-1.882-10.54,0.038-15.319C35.117,56.503,34.514,56.315,33.95,56.202L33.95,56.202z"/>
	<path fill="#E58F70" d="M45.807,76.716c-0.527,0.376-1.054,0.678-1.582,0.903c0.188,0.488,0.415,0.979,0.641,1.468L45.807,76.716
		L45.807,76.716z"/>
	<path fill="#FFD38E" d="M45.807,76.716l-0.941,2.371c2.521,5.721,6.7,11.254,12.459,16.562l-0.452,0.64l-1.543,2.108l-1.167,1.582
		c0.263,0.338,0.526,0.715,0.79,1.053l1.995,0.978l3.2-5.796C53.259,89.325,48.479,82.851,45.807,76.716L45.807,76.716z"/>
	<path fill="#96AFC7" d="M48.177,103.667l-2.07-1.658l-0.038,0.039c0.339,0.564,0.678,1.091,1.055,1.656
		c0.489,0.678,1.016,1.355,1.619,2.032l4.854-6.587c-0.15-0.226-0.3-0.452-0.413-0.715L48.177,103.667L48.177,103.667z"/>
	<path fill="#A9C5DE" d="M46.107,102.009l2.07,1.658l5.007-5.232c-0.075-0.15-0.151-0.302-0.226-0.452l2.372,0.414l1.543-2.108
		l-4.366-1.505L46.107,102.009L46.107,102.009z"/>
	<path fill="#335E88" d="M48.743,105.736c-0.603-0.677-1.129-1.354-1.619-2.032l-0.527,0.413l1.655,2.146l3.463,4.517l-9.974,1.544
		h15.282c-1.167-0.716-2.259-1.393-3.237-2.108c-0.075-0.075-0.15-0.15-0.226-0.188C51.678,108.635,50.06,107.204,48.743,105.736
		L48.743,105.736z"/>
	<polygon fill="#9CBBDA" points="48.252,106.264 46.597,104.117 36.095,112.324 39.709,112.324 48.252,106.264 	"/>
	<polygon fill="#5686C0" points="39.709,112.324 41.741,112.324 51.715,110.78 48.252,106.264 39.709,112.324 	"/>
	<path fill="#96AFC7" d="M72.381,105.474l-1.43-0.866l-5.045,6.775l-2.296,0.941h3.425C69.783,109.801,71.59,107.543,72.381,105.474
		L72.381,105.474z"/>
	<path fill="#A9C5DE" d="M70.951,104.607l-4.818-2.937l-1.205,3.125l3.463,1.92c-0.678,0.037-1.355,0.037-2.033,0.037l-2.747,5.571
		l2.296-0.941L70.951,104.607L70.951,104.607z"/>
	<path fill="#7093A9" d="M66.357,106.753c0.678,0,1.355,0,2.033-0.037l-3.463-1.92l-0.64,1.693c0.188,0.037,0.413,0.075,0.602,0.112
		C65.379,106.678,65.868,106.716,66.357,106.753L66.357,106.753z"/>
	<path fill="#7093A9" d="M52.958,97.982c0.075,0.15,0.151,0.302,0.226,0.452c0.113,0.263,0.263,0.489,0.413,0.715
		c0.188,0.264,0.377,0.564,0.565,0.829l1.167-1.582L52.958,97.982L52.958,97.982z"/>
	<path fill="#A9C5DE" d="M54.163,99.979c-0.188-0.265-0.377-0.565-0.565-0.829l-4.854,6.587l4.253,0.904l3.35-4.065
		c-0.49-0.489-0.979-0.979-1.393-1.544C54.689,100.693,54.426,100.316,54.163,99.979L54.163,99.979z"/>
	<path fill="#A9C5DE" d="M57.249,103.402l-3.689,6.625c0.076,0.038,0.15,0.113,0.226,0.188l4.78,0.339l3.125-4.667
		C60.072,105.322,58.566,104.494,57.249,103.402L57.249,103.402z"/>
	<path fill="#96AFC7" d="M53.56,110.027l3.689-6.625c-0.339-0.264-0.64-0.564-0.903-0.827l-3.35,4.065l-4.253-0.904
		C50.06,107.204,51.678,108.635,53.56,110.027L53.56,110.027z"/>
	<path fill="#96AFC7" d="M61.69,105.888l-3.125,4.667l-4.78-0.339c0.979,0.716,2.07,1.393,3.237,2.108h2.07l3.463-6.174
		C62.255,106.074,61.954,106,61.69,105.888L61.69,105.888z"/>
	<path fill="#A9C5DE" d="M64.89,106.602c-0.188-0.037-0.414-0.075-0.602-0.112c-0.603-0.075-1.167-0.188-1.732-0.339l-3.463,6.174
		h0.979l3.163-1.694L64.89,106.602L64.89,106.602z"/>
	<path fill="#96AFC7" d="M64.89,106.602l-1.655,4.028l-3.163,1.694h3.539l2.747-5.571C65.868,106.716,65.379,106.678,64.89,106.602
		L64.89,106.602z"/>
	<path fill="#FFD38E" d="M16.974,100.542c-1.129-0.94-2.521-0.602-4.14,0.941l-8.583,7.415l-2.786,2.446
		c-0.188,1.694,0.038,2.974,0.679,3.839c0.79-0.036,1.542-0.15,2.258-0.338l-0.791-3.463l11.782-9.072L16.974,100.542
		L16.974,100.542z"/>
	<path fill="#C06D45" d="M18.705,103.553c-0.489-1.467-1.054-2.446-1.731-3.011l-1.581,1.769l-4.855,5.459
		c-1.394,3.877-3.426,6.247-6.136,7.076c-0.715,0.188-1.468,0.302-2.258,0.338c0.564,0.791,1.43,1.206,2.634,1.318
		c1.468,0.075,3.387-0.377,5.834-1.318l2.748-7.414L18.705,103.553L18.705,103.553z"/>
	<path fill="#E58F70" d="M8.957,101.483H5.833c-6.211-0.075-7.454,1.731-3.764,5.458L8.957,101.483L8.957,101.483z"/>
	<path fill="#C06D45" d="M12.834,101.483H8.957l-6.888,5.458c0.602,0.602,1.317,1.242,2.183,1.957L12.834,101.483L12.834,101.483z"
		/>
	<path fill="#FFD38E" d="M18.705,103.553l-5.345,4.217l-2.748,7.414l-1.543,2.861c-0.489,0.866-0.678,1.656-0.64,2.334
		c1.092-0.15,2.108-0.377,3.049-0.715l3.275-10.729l7.076-4.63c-0.376-0.563-0.828-1.129-1.317-1.73
		C19.947,102.763,19.345,103.063,18.705,103.553L18.705,103.553z"/>
	<path fill="#E58F70" d="M10.538,107.77l4.855-5.459l-11.782,9.072l0.791,3.463C7.112,114.017,9.144,111.646,10.538,107.77
		L10.538,107.77z"/>
	<path fill="#C06D45" d="M11.479,119.664c-0.941,0.338-1.958,0.564-3.049,0.715c0.075,0.828,0.79,1.505,2.183,2.032
		c7.867,0.716,11.518-2.635,11.028-10.087h2.974c0-1.469-0.038-2.674-0.113-3.689c-0.376-4.743-1.693-6.774-3.989-6.06
		c0.489,0.602,0.941,1.167,1.317,1.73c1.431,2.221,1.807,4.141,1.092,5.835l-1.769-1.28
		C19.458,114.469,16.258,118.045,11.479,119.664L11.479,119.664z"/>
	<path fill="#E58F70" d="M14.753,108.936l-3.275,10.729c4.78-1.619,7.98-5.195,9.674-10.804l1.769,1.28
		c0.715-1.694,0.339-3.614-1.092-5.835L14.753,108.936L14.753,108.936z"/>
	<path fill="#C06D45" d="M36.283,102.65c-0.376-0.113-0.752-0.15-1.092-0.188c-0.866,3.538-2.823,6.813-5.947,9.862h4.667
		c5.684-5.835,6.7-9.034,3.049-9.599C36.735,102.688,36.509,102.688,36.283,102.65L36.283,102.65z"/>
	<path fill="#E58F70" d="M24.615,112.324h4.63c3.124-3.049,5.081-6.324,5.947-9.862c-3.576-0.453-7.114,1.618-10.69,6.173
		C24.577,109.651,24.615,110.855,24.615,112.324L24.615,112.324z"/>
	<path fill="#C06D45" d="M104.977,101.295l1.43,1.693l7.867,9.336c0.038,1.054-1.053,1.957-3.274,2.747
		c-0.413,0.15-0.903,0.302-1.431,0.452c0.904,0.414,1.958,0.752,3.162,1.015c0.641-0.148,1.242-0.3,1.808-0.488
		c3.915-1.394,4.517-3.764,1.769-7.039l-5.909-4.667c-0.415-0.564-0.866-1.092-1.317-1.506
		C107.725,101.596,106.369,101.068,104.977,101.295L104.977,101.295z"/>
	<path fill="#FFD38E" d="M106.406,102.988l-1.43-1.693c-0.865,0.15-1.77,0.565-2.635,1.28l-8.883,8.469l1.731,0.226
		C100.234,106.113,103.961,103.365,106.406,102.988L106.406,102.988z"/>
	<path fill="#E58F70" d="M109.08,102.838c0.451,0.414,0.902,0.941,1.317,1.506l5.909,4.667c2.748,3.275,2.146,5.646-1.769,7.039
		l0.112,0.488c1.317,1.544,2.521,2.862,3.613,3.878c5.834,1.167,7.189-0.452,4.027-4.855l-10.2-15.094
		C111.15,100.844,110.172,101.634,109.08,102.838L109.08,102.838z"/>
	<path fill="#C06D45" d="M95.19,111.27l-1.731-0.226l-1.393,1.28h3.99c2.709,3.086,6.061,3.199,10.088,0.375
		c-0.754-1.24-0.979-2.747-0.641-4.479l-2.559,4.104L95.19,111.27L95.19,111.27z"/>
	<path fill="#FFD38E" d="M109.568,115.523c0.527-0.15,1.018-0.302,1.431-0.452c-2.22-1.205-4.064-3.5-5.495-6.851
		c-0.339,1.731-0.113,3.238,0.641,4.479C106.821,113.866,107.951,114.808,109.568,115.523L109.568,115.523z"/>
	<path fill="#E58F70" d="M106.406,102.988c-2.445,0.377-6.172,3.125-11.216,8.281l7.755,1.055l2.559-4.104
		c1.431,3.351,3.275,5.646,5.495,6.851c2.222-0.79,3.312-1.693,3.274-2.747L106.406,102.988L106.406,102.988z"/>
	<path fill="#C06D45" d="M125.642,109.463c0.677-1.242,0.489-2.259-0.603-3.049l-2.408,6.36l-0.604-1.016l-5.344-8.958l-0.527-0.903
		c-1.167-1.619-2.521-2.069-4.065-1.431l10.2,15.094c3.162,4.403,1.807,6.022-4.027,4.855c3.312,3.124,5.646,3.764,6.964,1.995
		c1.769-2.333,1.242-5.006-1.655-8.055l-0.303-0.527L125.642,109.463L125.642,109.463z"/>
	<path fill="#E58F70" d="M125.039,106.414c-0.488-0.34-1.166-0.678-2.033-0.94c0.641,1.768,0.302,3.839-0.979,6.285l0.604,1.016
		L125.039,106.414L125.039,106.414z"/>
	<path fill="#C06D45" d="M123.006,105.474c0.038-1.77-1.016-2.711-3.199-2.861l2.221,9.146
		C123.308,109.312,123.646,107.241,123.006,105.474L123.006,105.474z"/>
	<path fill="#E58F70" d="M119.807,102.612c-0.865-0.075-1.92,0-3.123,0.188l5.344,8.958L119.807,102.612L119.807,102.612z"/>
	<path d="M71.363,45.211c0.528-0.866,1.13-1.693,1.807-2.521c0.15-0.188,0.302-0.339,0.453-0.527
		c0.865-1.017,1.844-1.995,2.936-2.936c-7.904,4.779-10.729,11.933-8.507,21.492l1.054-0.678
		C67.863,54.621,68.617,49.69,71.363,45.211L71.363,45.211z"/>
	<path fill="#DAD6CF" d="M73.17,42.689c-0.677,0.828-1.278,1.655-1.807,2.521c4.48,2.822,5.309,8.318,2.485,16.562
		c1.317,0.188,2.635,0.15,3.989-0.112C79.607,53.041,78.064,46.717,73.17,42.689L73.17,42.689z"/>
	<path fill="#CCCCCC" d="M73.623,42.162c-0.151,0.188-0.303,0.339-0.453,0.527c4.895,4.027,6.438,10.352,4.668,18.971
		c0.188-0.076,0.414-0.151,0.603-0.188C80.511,52.399,78.93,45.964,73.623,42.162L73.623,42.162z"/>
	<path fill="#85513F" d="M69.105,60.041l-1.054,0.678c4.856,3.501,9.485,3.275,13.89-0.678c-1.167,0.64-2.334,1.129-3.501,1.431
		c-0.188,0.037-0.414,0.112-0.603,0.188c-1.354,0.263-2.672,0.301-3.989,0.112C72.229,61.547,70.648,60.982,69.105,60.041
		L69.105,60.041z"/>
	<path fill="#FAF9F8" d="M69.105,60.041c1.543,0.941,3.124,1.506,4.743,1.731c2.823-8.243,1.995-13.739-2.485-16.562
		C68.617,49.69,67.863,54.621,69.105,60.041L69.105,60.041z"/>
	<path d="M75.617,32.827c-4.291,1.393-7.641,3.576-10.012,6.512l2.672,1.995C69.293,38.285,71.74,35.424,75.617,32.827
		L75.617,32.827z"/>
	<path d="M87.625,35.838l1.693,2.221c0.753-1.806,2.673-3.087,5.797-3.802C92.367,33.654,89.883,34.182,87.625,35.838L87.625,35.838
		z"/>
	<path d="M92.405,43.555c0.112-0.264,0.188-0.489,0.301-0.679c0.565-1.165,1.204-2.332,1.995-3.537
		c-1.469,1.957-2.598,3.877-3.388,5.759c-1.995,4.63-1.995,8.996,0,13.062l0.413-0.641c-1.655-3.5-1.73-7.452-0.188-11.818
		C91.803,44.984,92.066,44.27,92.405,43.555L92.405,43.555z"/>
	<path fill="#CCCCCC" d="M92.706,42.876c-0.112,0.189-0.188,0.415-0.301,0.679c3.463,1.618,5.27,5.947,5.458,12.948
		c0.075-0.112,0.15-0.226,0.226-0.301C98.089,48.862,96.282,44.42,92.706,42.876L92.706,42.876z"/>
	<path fill="#DAD6CF" d="M92.405,43.555c-0.339,0.715-0.603,1.43-0.866,2.146c3.237,2.823,4.743,6.85,4.518,12.045
		c0.639-0.263,1.242-0.678,1.807-1.242C97.675,49.502,95.868,45.173,92.405,43.555L92.405,43.555z"/>
	<path fill="#85513F" d="M98.089,56.202c-0.075,0.075-0.15,0.188-0.226,0.301c-0.564,0.564-1.168,0.979-1.807,1.242
		c-1.243,0.489-2.711,0.414-4.33-0.227l-0.413,0.641c1.995,0.678,3.613,0.678,4.931,0.038c1.017-0.527,1.845-1.468,2.484-2.861
		C98.541,55.637,98.314,55.938,98.089,56.202L98.089,56.202z"/>
	<path fill="#FAF9F8" d="M91.727,57.519c1.619,0.641,3.087,0.716,4.33,0.227c0.226-5.195-1.28-9.222-4.518-12.045
		C89.996,50.066,90.071,54.019,91.727,57.519L91.727,57.519z"/>
	<path fill="#85513F" d="M94.25,60.417l-4.33,3.351l5.082-2.334c3.274-1.845,4.63-0.451,4.104,4.216
		c-0.414,2.711-2.41,5.42-5.985,8.094c4.179-0.941,6.7-3.953,7.565-9.034C101.025,59.1,98.879,57.67,94.25,60.417L94.25,60.417z"/>
	<path fill="#85513F" d="M51.189,72.274c1.317-1.543,2.672-2.747,4.141-3.688c3.576,12.533,10.614,19.195,21.116,19.912
		c-9.711-2.749-16.11-9.75-19.196-21.004c1.167-0.565,2.371-0.903,3.651-1.092l-1.28-2.635
		C55.179,65.01,52.355,67.833,51.189,72.274L51.189,72.274z"/>
	<path fill="#85513F" d="M46.973,69.451c-3.425-3.35-7.641-4.291-12.647-2.86c3.802,0.113,6.663,0.79,8.657,2.07
		c-2.295,0.338-3.688,1.241-4.177,2.672c1.167-0.828,3.049-1.28,5.646-1.393c0.489,0.603,0.903,1.279,1.167,2.032L46.973,69.451
		L46.973,69.451z"/>
	<path d="M95.989,52.664c-0.308,0-0.577,0.252-0.813,0.775c-0.216,0.523-0.324,1.155-0.324,1.896c0,0.741,0.108,1.354,0.324,1.878
		c0.236,0.523,0.506,0.794,0.813,0.794c0.307,0,0.577-0.271,0.794-0.794c0.234-0.523,0.343-1.137,0.343-1.878
		c0-0.74-0.108-1.372-0.343-1.896C96.566,52.916,96.296,52.664,95.989,52.664L95.989,52.664z"/>
	<path fill="#FFFFFF" d="M95.61,53.674c-0.108,0.271-0.163,0.597-0.163,0.976c0,0.38,0.055,0.686,0.163,0.938
		c0.126,0.271,0.253,0.415,0.415,0.415s0.289-0.144,0.396-0.415c0.127-0.253,0.181-0.559,0.181-0.938
		c0-0.379-0.054-0.705-0.181-0.976c-0.107-0.252-0.234-0.379-0.396-0.379S95.736,53.422,95.61,53.674L95.61,53.674z"/>
	<path d="M76.336,54.281c-0.438,0-0.824,0.361-1.158,1.107c-0.31,0.747-0.463,1.647-0.463,2.703c0,1.055,0.153,1.93,0.463,2.676
		c0.334,0.746,0.721,1.133,1.158,1.133s0.823-0.387,1.133-1.133c0.334-0.746,0.488-1.621,0.488-2.676
		c0-1.056-0.154-1.956-0.488-2.703C77.159,54.643,76.773,54.281,76.336,54.281L76.336,54.281z"/>
	<path fill="#FFFFFF" d="M75.795,55.723c-0.154,0.387-0.232,0.851-0.232,1.391c0,0.541,0.078,0.979,0.232,1.338
		c0.18,0.387,0.36,0.592,0.592,0.592s0.412-0.205,0.566-0.592c0.18-0.359,0.258-0.797,0.258-1.338c0-0.54-0.078-1.004-0.258-1.391
		c-0.154-0.359-0.335-0.54-0.566-0.54S75.975,55.363,75.795,55.723L75.795,55.723z"/>
</g>
</svg>
